<?xml version="1.0"?>
<svg xmlns="http://www.w3.org/2000/svg" xmlns:xlink="http://www.w3.org/1999/xlink" xmlns:svgjs="http://svgjs.com/svgjs" version="1.1" width="512" height="512" x="0" y="0" viewBox="0 0 512 512" style="enable-background:new 0 0 512 512" xml:space="preserve" class=""><g>
<g xmlns="http://www.w3.org/2000/svg">
	<g>
		<path d="M467,28.355H45c-24.813,0-45,20.187-45,45v278.273c0,24.813,20.187,45,45,45h151.494v57.016h-22.587    c-8.284,0-15,6.716-15,15s6.716,15,15,15h164.187c8.284,0,15-6.716,15-15s-6.716-15-15-15h-22.587v-57.016H467    c24.813,0,45-20.187,45-45V73.355C512,48.542,491.813,28.355,467,28.355z M285.506,453.645h-59.012v-57.016h59.012V453.645z     M482,351.629c0,8.271-6.729,15-15,15H45c-8.271,0-15-6.729-15-15v-22.803h452V351.629z M482,298.826H30V73.355    c0-8.271,6.729-15,15-15h422c8.271,0,15,6.729,15,15V298.826z" fill="#f5f5f5" data-original="#000000" style="" class=""/>
	</g>
</g>
<g xmlns="http://www.w3.org/2000/svg">
	<g>
		<path d="M182.275,216.892l-40.633-27.741l40.633-27.741c6.842-4.671,8.602-14.004,3.931-20.846    c-4.67-6.841-14.004-8.601-20.846-3.931l-58.779,40.129c-4.094,2.795-6.542,7.432-6.542,12.388s2.448,9.595,6.542,12.39    l58.779,40.129c2.587,1.767,5.531,2.613,8.444,2.613c4.79,0,9.498-2.29,12.402-6.544    C190.877,230.896,189.117,221.563,182.275,216.892z" fill="#f5f5f5" data-original="#000000" style="" class=""/>
	</g>
</g>
<g xmlns="http://www.w3.org/2000/svg">
	<g>
		<path d="M405.419,176.764l-58.779-40.129c-6.841-4.67-16.174-2.91-20.846,3.931c-4.671,6.842-2.911,16.175,3.931,20.846    l40.633,27.741l-40.633,27.739c-6.842,4.671-8.602,14.004-3.931,20.846c2.905,4.255,7.611,6.544,12.402,6.544    c2.913,0,5.857-0.847,8.444-2.613l58.779-40.129c4.094-2.795,6.542-7.432,6.542-12.388S409.512,179.56,405.419,176.764z" fill="#f5f5f5" data-original="#000000" style="" class=""/>
	</g>
</g>
<g xmlns="http://www.w3.org/2000/svg">
	<g>
		<path d="M293.458,122.516c-7.22-4.059-16.366-1.497-20.426,5.726l-60.218,107.123c-4.058,7.22-1.495,16.365,5.727,20.425    c2.324,1.307,4.847,1.927,7.336,1.927c5.244,0,10.336-2.755,13.089-7.652l60.218-107.123    C303.244,135.721,300.68,126.576,293.458,122.516z" fill="#f5f5f5" data-original="#000000" style="" class=""/>
	</g>
</g>
<g xmlns="http://www.w3.org/2000/svg">
</g>
<g xmlns="http://www.w3.org/2000/svg">
</g>
<g xmlns="http://www.w3.org/2000/svg">
</g>
<g xmlns="http://www.w3.org/2000/svg">
</g>
<g xmlns="http://www.w3.org/2000/svg">
</g>
<g xmlns="http://www.w3.org/2000/svg">
</g>
<g xmlns="http://www.w3.org/2000/svg">
</g>
<g xmlns="http://www.w3.org/2000/svg">
</g>
<g xmlns="http://www.w3.org/2000/svg">
</g>
<g xmlns="http://www.w3.org/2000/svg">
</g>
<g xmlns="http://www.w3.org/2000/svg">
</g>
<g xmlns="http://www.w3.org/2000/svg">
</g>
<g xmlns="http://www.w3.org/2000/svg">
</g>
<g xmlns="http://www.w3.org/2000/svg">
</g>
<g xmlns="http://www.w3.org/2000/svg">
</g>
</g></svg>
