<?xml version="1.0" encoding="UTF-8" standalone="no"?> <svg id="Capa_1" enable-background="new 0 0 512 512" height="512" viewBox="0 0 512 512" width="512" xmlns="http://www.w3.org/2000/svg"><g><path d="m500.757 206.394-14.142-14.142c-6.61-6.611-15.4-10.251-24.749-10.251-3.745 0-7.397.594-10.858 1.719v-168.72c0-8.284-6.716-15-15-15h-60c-8.284 0-15 6.716-15 15v10c0 8.271-6.729 15-15 15s-15-6.729-15-15v-10c0-8.284-6.716-15-15-15h-60c-8.284 0-15 6.716-15 15v10c0 8.271-6.729 15-15 15s-15-6.729-15-15v-10c0-8.284-6.716-15-15-15h-60c-8.284 0-15 6.716-15 15v10c0 8.271-6.729 15-15 15s-15-6.729-15-15v-10c0-8.284-6.716-15-15-15h-60c-8.284 0-15 6.716-15 15v482c0 8.284 6.716 15 15 15h420c8.284 0 15-6.716 15-15v-191.36l49.749-49.749c13.646-13.647 13.646-35.851 0-49.497zm-189.212 196.282-31.82 10.606 10.606-31.82 129.109-129.107 21.214 21.213zm109.463 79.324h-390v-452h30.276c2.496 22.468 21.601 40 44.724 40s42.229-17.532 44.724-40h30.552c2.496 22.468 21.601 40 44.724 40s42.229-17.532 44.724-40h30.552c2.496 22.468 21.601 40 44.724 40s42.229-17.532 44.724-40h30.276v178.36l-154.393 154.393c-1.647 1.646-2.887 3.654-3.624 5.863l-17.794 53.384h-169.189c-8.284 0-15 6.716-15 15s6.716 15 15 15h179.992.01c1.586 0 3.188-.252 4.742-.77l63.64-21.213c2.209-.737 4.216-1.977 5.863-3.624l90.754-90.754v146.361zm58.536-247.322-17.678 17.677-21.213-21.213 17.678-17.677c1.274-1.274 2.762-1.464 3.536-1.464s2.261.19 3.536 1.464l14.142 14.142c1.948 1.949 1.948 5.121-.001 7.071z"/><path d="m76.008 152h300c8.284 0 15-6.716 15-15s-6.716-15-15-15h-300c-8.284 0-15 6.716-15 15s6.716 15 15 15z"/><path d="m76.008 212h300c8.284 0 15-6.716 15-15s-6.716-15-15-15h-300c-8.284 0-15 6.716-15 15s6.716 15 15 15z"/><path d="m76.008 272h230c8.284 0 15-6.716 15-15s-6.716-15-15-15h-230c-8.284 0-15 6.716-15 15s6.716 15 15 15z"/><path d="m76.008 332h180c8.284 0 15-6.716 15-15s-6.716-15-15-15h-180c-8.284 0-15 6.716-15 15s6.716 15 15 15z"/><path d="m76.008 392h140c8.284 0 15-6.716 15-15s-6.716-15-15-15h-140c-8.284 0-15 6.716-15 15s6.716 15 15 15z"/></g></svg>